Adsworth-72PT G XT0.ufo
<glyph name="exclam" format="2">
  <advance width="312"/>
  <unicode hex="0021"/>
  <outline>
    <contour>
      <point x="111" y="292" type="line"/>
      <point x="111" y="1500" type="line"/>
      <point x="201" y="1500" type="line"/>
      <point x="201" y="292" type="line"/>
    </contour>
    <contour>
      <point x="155" y="-9.0" type="line" smooth="yes"/>
      <point x="189.0" y="-9.0"/>
      <point x="229" y="31"/>
      <point x="229" y="63" type="qcurve" smooth="yes"/>
      <point x="229" y="68" type="line" smooth="yes"/>
      <point x="229" y="100"/>
      <point x="190" y="141"/>
      <point x="155" y="141" type="qcurve" smooth="yes"/>
      <point x="154" y="141" type="line" smooth="yes"/>
      <point x="121" y="141"/>
      <point x="83" y="100"/>
      <point x="83" y="68" type="qcurve" smooth="yes"/>
      <point x="83" y="63" type="line" smooth="yes"/>
      <point x="83" y="30"/>
      <point x="121" y="-9.0"/>
      <point x="154" y="-9.0" type="qcurve" smooth="yes"/>
    </contour>
  </outline>
</glyph>
<glyph name="numbersign" format="2">
  <advance width="662"/>
  <unicode hex="0023"/>
  <outline>
    <contour>
      <point x="70" y="0" type="line"/>
      <point x="270" y="1500" type="line"/>
      <point x="344" y="1500" type="line"/>
      <point x="144" y="0" type="line"/>
    </contour>
    <contour>
      <point x="626" y="500" type="line"/>
      <point x="-14" y="500" type="line"/>
      <point x="-14" y="570" type="line"/>
      <point x="626" y="570" type="line"/>
    </contour>
    <contour>
      <point x="676" y="915" type="line"/>
      <point x="36" y="915" type="line"/>
      <point x="36" y="985" type="line"/>
      <point x="676" y="985" type="line"/>
    </contour>
    <contour>
      <point x="330" y="0" type="line"/>
      <point x="530" y="1500" type="line"/>
      <point x="604" y="1500" type="line"/>
      <point x="404" y="0" type="line"/>
    </contour>
  </outline>
</glyph>
<glyph name="percent" format="2">
  <advance width="1188"/>
  <unicode hex="0025"/>
  <outline>
    <contour>
      <point x="290" y="691" type="line" smooth="yes"/>
      <point x="168" y="691"/>
      <point x="40" y="867"/>
      <point x="40" y="1025" type="qcurve" smooth="yes"/>
      <point x="40.0" y="1227" type="line" smooth="yes"/>
      <point x="40.0" y="1364"/>
      <point x="176.0" y="1520.0"/>
      <point x="288.0" y="1520.0" type="qcurve" smooth="yes"/>
      <point x="292.0" y="1520.0" type="line" smooth="yes"/>
      <point x="416.0" y="1520.0"/>
      <point x="548.0" y="1364"/>
      <point x="548.0" y="1227" type="qcurve" smooth="yes"/>
      <point x="548" y="1025" type="line" smooth="yes"/>
      <point x="548" y="867"/>
      <point x="411" y="691"/>
      <point x="294" y="691" type="qcurve" smooth="yes"/>
    </contour>
    <contour>
      <point x="291" y="772" type="line" smooth="yes"/>
      <point x="367" y="772"/>
      <point x="452" y="897"/>
      <point x="452" y="1006" type="qcurve" smooth="yes"/>
      <point x="452.0" y="1235" type="line" smooth="yes"/>
      <point x="452.0" y="1327"/>
      <point x="369.0" y="1434"/>
      <point x="291.0" y="1434" type="qcurve" smooth="yes"/>
      <point x="288.0" y="1434" type="line" smooth="yes"/>
      <point x="214.0" y="1434"/>
      <point x="134.0" y="1327"/>
      <point x="134.0" y="1235" type="qcurve" smooth="yes"/>
      <point x="134" y="1006" type="line" smooth="yes"/>
      <point x="134" y="897"/>
      <point x="213" y="772"/>
      <point x="288" y="772" type="qcurve" smooth="yes"/>
    </contour>
    <contour>
      <point x="890" y="-19" type="line" smooth="yes"/>
      <point x="768" y="-19"/>
      <point x="640" y="157"/>
      <point x="640" y="315" type="qcurve" smooth="yes"/>
      <point x="640.0" y="517" type="line" smooth="yes"/>
      <point x="640.0" y="654"/>
      <point x="776.0" y="810.0"/>
      <point x="888.0" y="810.0" type="qcurve" smooth="yes"/>
      <point x="892.0" y="810.0" type="line" smooth="yes"/>
      <point x="1016.0" y="810.0"/>
      <point x="1148.0" y="654"/>
      <point x="1148.0" y="517" type="qcurve" smooth="yes"/>
      <point x="1148" y="315" type="line" smooth="yes"/>
      <point x="1148" y="157"/>
      <point x="1011" y="-19"/>
      <point x="894" y="-19" type="qcurve" smooth="yes"/>
    </contour>
    <contour>
      <point x="891" y="62" type="line" smooth="yes"/>
      <point x="967" y="62"/>
      <point x="1052" y="187"/>
      <point x="1052" y="296" type="qcurve" smooth="yes"/>
      <point x="1052.0" y="525" type="line" smooth="yes"/>
      <point x="1052.0" y="617"/>
      <point x="969.0" y="724.0"/>
      <point x="891.0" y="724.0" type="qcurve" smooth="yes"/>
      <point x="888.0" y="724.0" type="line" smooth="yes"/>
      <point x="814.0" y="724.0"/>
      <point x="734.0" y="617"/>
      <point x="734.0" y="525" type="qcurve" smooth="yes"/>
      <point x="734" y="296" type="line" smooth="yes"/>
      <point x="734" y="187"/>
      <point x="813" y="62"/>
      <point x="888" y="62" type="qcurve" smooth="yes"/>
    </contour>
    <contour>
      <point x="120" y="0" type="line"/>
      <point x="960" y="1500" type="line"/>
      <point x="1060" y="1500" type="line"/>
      <point x="220" y="0" type="line"/>
    </contour>
  </outline>
</glyph>
<glyph name="ampersand" format="2">
  <advance width="840"/>
  <unicode hex="0026"/>
  <outline>
    <contour>
      <point x="439" y="503" type="line"/>
      <point x="874" y="634" type="line"/>
      <point x="906" y="557" type="line"/>
      <point x="471" y="426" type="line"/>
    </contour>
    <contour>
      <point x="503" y="750" type="line"/>
      <point x="358" y="750" type="line" smooth="yes"/>
      <point x="245" y="750"/>
      <point x="128" y="624"/>
      <point x="128" y="457" type="qcurve" smooth="yes"/>
      <point x="128" y="397" type="line" smooth="yes"/>
      <point x="128" y="211"/>
      <point x="270" y="75"/>
      <point x="384" y="75" type="qcurve" smooth="yes"/>
      <point x="410" y="75" type="line" smooth="yes"/>
      <point x="564" y="75"/>
      <point x="693.0" y="269"/>
      <point x="693" y="404" type="qcurve" smooth="yes"/>
      <point x="693" y="427" type="line" smooth="yes"/>
      <point x="693" y="449"/>
      <point x="689" y="491"/>
      <point x="685" y="511" type="qcurve"/>
      <point x="763" y="557" type="line"/>
      <point x="770" y="530"/>
      <point x="781" y="461"/>
      <point x="781" y="431" type="qcurve" smooth="yes"/>
      <point x="781" y="401" type="line" smooth="yes"/>
      <point x="781" y="212"/>
      <point x="554" y="-20"/>
      <point x="436" y="-22" type="qcurve" smooth="yes"/>
      <point x="407" y="-22" type="line" smooth="yes"/>
      <point x="238" y="-20"/>
      <point x="32" y="194"/>
      <point x="32" y="403" type="qcurve" smooth="yes"/>
      <point x="32" y="472" type="line" smooth="yes"/>
      <point x="32" y="620"/>
      <point x="146" y="779"/>
      <point x="266" y="805" type="qcurve"/>
      <point x="166" y="837"/>
      <point x="80" y="968"/>
      <point x="80" y="1049" type="qcurve" smooth="yes"/>
      <point x="80" y="1207" type="line" smooth="yes"/>
      <point x="80" y="1339"/>
      <point x="242" y="1512"/>
      <point x="354" y="1512" type="qcurve" smooth="yes"/>
      <point x="400" y="1512" type="line" smooth="yes"/>
      <point x="507" y="1512"/>
      <point x="642" y="1379"/>
      <point x="650" y="1260" type="qcurve" smooth="yes"/>
      <point x="650" y="1110" type="line"/>
      <point x="558" y="1105" type="line"/>
      <point x="558" y="1231" type="line" smooth="yes"/>
      <point x="558" y="1316"/>
      <point x="461" y="1420"/>
      <point x="377" y="1420" type="qcurve" smooth="yes"/>
      <point x="353" y="1420" type="line" smooth="yes"/>
      <point x="270" y="1420"/>
      <point x="176" y="1306.0"/>
      <point x="176" y="1191" type="qcurve" smooth="yes"/>
      <point x="176" y="1065" type="line" smooth="yes"/>
      <point x="176" y="938"/>
      <point x="332" y="838"/>
      <point x="449" y="837" type="qcurve" smooth="yes"/>
      <point x="522" y="836" type="line"/>
    </contour>
  </outline>
</glyph>
<glyph name="parenleft" format="2">
  <advance width="324"/>
  <unicode hex="0028"/>
  <outline>
    <contour>
      <point x="297" y="-311" type="line"/>
      <point x="55" y="110"/>
      <point x="55" y="1090"/>
      <point x="292" y="1525" type="qcurve"/>
      <point x="351" y="1465" type="line"/>
      <point x="135" y="1055"/>
      <point x="135" y="135"/>
      <point x="356" y="-251" type="qcurve"/>
    </contour>
  </outline>
</glyph>
<glyph name="parenright" format="2">
  <advance width="324"/>
  <unicode hex="0029"/>
  <outline>
    <contour>
      <point x="27" y="-311" type="qcurve"/>
      <point x="-32" y="-251" type="line"/>
      <point x="189" y="135"/>
      <point x="189" y="1055"/>
      <point x="-27" y="1465" type="qcurve"/>
      <point x="32" y="1525" type="line"/>
      <point x="269" y="1090"/>
      <point x="269" y="110"/>
    </contour>
  </outline>
</glyph>
<glyph name="asterisk" format="2">
  <advance width="570"/>
  <unicode hex="002A"/>
  <outline>
    <contour>
      <point x="283" y="1178" type="line"/>
      <point x="177" y="1000" type="line"/>
      <point x="72" y="1051" type="line"/>
      <point x="221" y="1218" type="line"/>
      <point x="84" y="1297" type="line"/>
      <point x="144" y="1400" type="line"/>
      <point x="241" y="1296" type="line"/>
      <point x="239" y="1520" type="line"/>
      <point x="331" y="1520" type="line"/>
      <point x="328" y="1296" type="line"/>
      <point x="426" y="1400" type="line"/>
      <point x="486" y="1297" type="line"/>
      <point x="349" y="1218" type="line"/>
      <point x="498" y="1061" type="line"/>
      <point x="393" y="1000" type="line"/>
    </contour>
  </outline>
</glyph>
<glyph name="plus" format="2">
  <advance width="250"/>
  <unicode hex="002B"/>
  <outline>
    <contour>
      <point x="460" y="732" type="line"/>
      <point x="-200" y="732" type="line"/>
      <point x="-200" y="817" type="line"/>
      <point x="460" y="817" type="line"/>
    </contour>
    <contour>
      <point x="177.0" y="1152.0" type="line"/>
      <point x="177.0" y="372.0" type="line"/>
      <point x="84.0" y="372.0" type="line"/>
      <point x="84.0" y="1152.0" type="line"/>
    </contour>
  </outline>
</glyph>
<glyph name="zero" format="2">
  <advance width="638"/>
  <unicode hex="0030"/>
  <outline>
    <contour>
      <point x="301" y="-15" type="line" smooth="yes"/>
      <point x="178" y="-15"/>
      <point x="72" y="165"/>
      <point x="72" y="353" type="qcurve" smooth="yes"/>
      <point x="72" y="1137" type="line" smooth="yes"/>
      <point x="72" y="1331"/>
      <point x="193" y="1504"/>
      <point x="300" y="1504" type="qcurve" smooth="yes"/>
      <point x="339" y="1504" type="line" smooth="yes"/>
      <point x="443" y="1504"/>
      <point x="566" y="1331"/>
      <point x="566" y="1137" type="qcurve" smooth="yes"/>
      <point x="566" y="353" type="line" smooth="yes"/>
      <point x="566" y="155"/>
      <point x="453" y="-15"/>
      <point x="340" y="-15" type="qcurve" smooth="yes"/>
    </contour>
    <contour>
      <point x="328" y="66" type="line" smooth="yes"/>
      <point x="411" y="66"/>
      <point x="482" y="177"/>
      <point x="482" y="307" type="qcurve" smooth="yes"/>
      <point x="482" y="1174" type="line" smooth="yes"/>
      <point x="482" y="1307"/>
      <point x="412" y="1418"/>
      <point x="328" y="1418" type="qcurve" smooth="yes"/>
      <point x="309" y="1418" type="line" smooth="yes"/>
      <point x="227" y="1418"/>
      <point x="156" y="1307"/>
      <point x="156" y="1174" type="qcurve" smooth="yes"/>
      <point x="156" y="307" type="line" smooth="yes"/>
      <point x="156" y="177"/>
      <point x="226" y="66"/>
      <point x="309" y="66" type="qcurve" smooth="yes"/>
    </contour>
  </outline>
</glyph>
<glyph name="three" format="2">
  <advance width="635"/>
  <unicode hex="0033"/>
  <outline>
    <contour>
      <point x="281" y="787" type="qcurve" smooth="yes"/>
      <point x="157" y="788" type="line"/>
      <point x="157" y="864" type="line"/>
      <point x="249" y="867" type="line" smooth="yes"/>
      <point x="377" y="870"/>
      <point x="468" y="992"/>
      <point x="468" y="1113" type="qcurve" smooth="yes"/>
      <point x="468" y="1237" type="line" smooth="yes"/>
      <point x="468" y="1316"/>
      <point x="390.0" y="1405.0"/>
      <point x="325" y="1405" type="qcurve"/>
      <point x="314" y="1405" type="line"/>
      <point x="221.0" y="1405.0"/>
      <point x="142" y="1314"/>
      <point x="146" y="1235" type="qcurve" smooth="yes"/>
      <point x="148" y="1164" type="line"/>
      <point x="55" y="1164" type="line"/>
      <point x="53" y="1254" type="line" smooth="yes"/>
      <point x="46" y="1367"/>
      <point x="204.0" y="1505.0"/>
      <point x="317" y="1505" type="qcurve"/>
      <point x="315" y="1505" type="line"/>
      <point x="413" y="1505"/>
      <point x="558.0" y="1367.0"/>
      <point x="558" y="1238" type="qcurve" smooth="yes"/>
      <point x="558" y="1120" type="line" smooth="yes"/>
      <point x="558" y="980"/>
      <point x="484" y="852"/>
      <point x="421" y="826" type="qcurve"/>
      <point x="487" y="807"/>
      <point x="588.0" y="695.0"/>
      <point x="588.0" y="563" type="qcurve" smooth="yes"/>
      <point x="588.0" y="307" type="line" smooth="yes"/>
      <point x="588.0" y="151.0"/>
      <point x="472" y="-31.0"/>
      <point x="338" y="-31" type="qcurve"/>
      <point x="332" y="-31" type="line"/>
      <point x="193" y="-31"/>
      <point x="39" y="126"/>
      <point x="37" y="248" type="qcurve" smooth="yes"/>
      <point x="35" y="401" type="line"/>
      <point x="130" y="401" type="line"/>
      <point x="129" y="233" type="line" smooth="yes"/>
      <point x="127" y="160"/>
      <point x="213" y="63"/>
      <point x="303" y="63" type="qcurve"/>
      <point x="313" y="63" type="line"/>
      <point x="403" y="63"/>
      <point x="496.0" y="222.0"/>
      <point x="496" y="370" type="qcurve" smooth="yes"/>
      <point x="496" y="526" type="line" smooth="yes"/>
      <point x="496.0" y="669.0"/>
      <point x="376" y="786"/>
    </contour>
  </outline>
</glyph>
<glyph name="six" format="2">
  <advance width="673"/>
  <unicode hex="0036"/>
  <outline>
    <contour>
      <point x="137" y="492" type="qcurve"/>
      <point x="138.0" y="433" type="line" smooth="yes"/>
      <point x="150.0" y="293"/>
      <point x="262.0" y="72"/>
      <point x="369.0" y="72" type="qcurve" smooth="yes"/>
      <point x="381" y="72" type="line" smooth="yes"/>
      <point x="467" y="72"/>
      <point x="546" y="256"/>
      <point x="546" y="407" type="qcurve" smooth="yes"/>
      <point x="546" y="522" type="line" smooth="yes"/>
      <point x="546" y="679"/>
      <point x="450" y="850"/>
      <point x="363" y="850" type="qcurve" smooth="yes"/>
      <point x="352" y="850" type="line" smooth="yes"/>
      <point x="263" y="850"/>
      <point x="129" y="665"/>
      <point x="126" y="519" type="qcurve" smooth="yes"/>
      <point x="124" y="496" type="line"/>
      <point x="79" y="505" type="line"/>
      <point x="80" y="517" type="line" smooth="yes"/>
      <point x="96" y="714"/>
      <point x="285" y="933"/>
      <point x="380" y="933" type="qcurve" smooth="yes"/>
      <point x="386" y="933" type="line" smooth="yes"/>
      <point x="506" y="933"/>
      <point x="629" y="743"/>
      <point x="629" y="564" type="qcurve" smooth="yes"/>
      <point x="629" y="361" type="line" smooth="yes"/>
      <point x="629" y="197"/>
      <point x="493" y="-15"/>
      <point x="372" y="-15" type="qcurve" smooth="yes"/>
      <point x="362.0" y="-15" type="line" smooth="yes"/>
      <point x="207.0" y="-15"/>
      <point x="64.0" y="272"/>
      <point x="60.0" y="516" type="qcurve" smooth="yes"/>
      <point x="59" y="661" type="line" smooth="yes"/>
      <point x="53" y="1118"/>
      <point x="299" y="1519"/>
      <point x="533" y="1519" type="qcurve" smooth="yes"/>
      <point x="556" y="1519" type="line"/>
      <point x="556" y="1446" type="line"/>
      <point x="544" y="1445" type="line" smooth="yes"/>
      <point x="316" y="1436"/>
      <point x="123" y="1027"/>
    </contour>
  </outline>
</glyph>
<glyph name="seven" format="2">
  <advance width="494"/>
  <unicode hex="0037"/>
  <outline>
    <contour>
      <point x="-17" y="1500" type="line"/>
      <point x="444" y="1500" type="line"/>
      <point x="451" y="1466" type="line"/>
      <point x="148" y="0" type="line"/>
      <point x="63" y="0" type="line"/>
      <point x="365" y="1418" type="line"/>
      <point x="-17" y="1418" type="line"/>
    </contour>
  </outline>
</glyph>
<glyph name="nine" format="2">
  <advance width="673"/>
  <unicode hex="0039"/>
  <outline>
    <contour>
      <point x="536" y="995" type="qcurve"/>
      <point x="535.0" y="1092" type="line" smooth="yes"/>
      <point x="523.0" y="1214"/>
      <point x="410.0" y="1421"/>
      <point x="303.0" y="1421" type="qcurve" smooth="yes"/>
      <point x="291" y="1421" type="line" smooth="yes"/>
      <point x="205" y="1421"/>
      <point x="127" y="1227"/>
      <point x="127" y="1076" type="qcurve" smooth="yes"/>
      <point x="127" y="961" type="line" smooth="yes"/>
      <point x="127" y="804"/>
      <point x="223" y="643"/>
      <point x="310" y="643" type="qcurve" smooth="yes"/>
      <point x="321" y="643" type="line" smooth="yes"/>
      <point x="410" y="643"/>
      <point x="544" y="822"/>
      <point x="547" y="968" type="qcurve" smooth="yes"/>
      <point x="549" y="991" type="line"/>
      <point x="594" y="982" type="line"/>
      <point x="593" y="970" type="line" smooth="yes"/>
      <point x="577" y="773"/>
      <point x="388" y="554"/>
      <point x="293" y="554" type="qcurve" smooth="yes"/>
      <point x="287" y="554" type="line" smooth="yes"/>
      <point x="167" y="554"/>
      <point x="44" y="744"/>
      <point x="44" y="923" type="qcurve" smooth="yes"/>
      <point x="44" y="1126" type="line" smooth="yes"/>
      <point x="44" y="1290"/>
      <point x="180" y="1502"/>
      <point x="301" y="1502" type="qcurve" smooth="yes"/>
      <point x="311.0" y="1502" type="line" smooth="yes"/>
      <point x="466.0" y="1502"/>
      <point x="609.0" y="1268"/>
      <point x="613.0" y="1080" type="qcurve" smooth="yes"/>
      <point x="614" y="826" type="line" smooth="yes"/>
      <point x="620.0" y="401.0"/>
      <point x="346" y="8"/>
      <point x="140" y="-1" type="qcurve" smooth="yes"/>
      <point x="117" y="-1" type="line"/>
      <point x="117" y="84" type="line"/>
      <point x="129" y="85" type="line" smooth="yes"/>
      <point x="335" y="94"/>
      <point x="549" y="498"/>
    </contour>
  </outline>
</glyph>
<glyph name="semicolon" format="2">
  <advance width="450"/>
  <unicode hex="003B"/>
  <outline>
    <contour>
      <point x="227" y="791" type="line" smooth="yes"/>
      <point x="264" y="791"/>
      <point x="307" y="833"/>
      <point x="307" y="868" type="qcurve" smooth="yes"/>
      <point x="307" y="873" type="line" smooth="yes"/>
      <point x="307" y="907"/>
      <point x="265" y="950"/>
      <point x="227" y="950" type="qcurve" smooth="yes"/>
      <point x="226" y="950" type="line" smooth="yes"/>
      <point x="191" y="950"/>
      <point x="150" y="907"/>
      <point x="150" y="873" type="qcurve" smooth="yes"/>
      <point x="150" y="868" type="line" smooth="yes"/>
      <point x="150" y="833"/>
      <point x="190" y="791"/>
      <point x="226" y="791" type="qcurve" smooth="yes"/>
    </contour>
    <contour>
      <point x="144" y="-145" type="line"/>
      <point x="135" y="57" type="line" smooth="yes"/>
      <point x="133" y="90"/>
      <point x="180" y="151"/>
      <point x="214" y="151" type="qcurve" smooth="yes"/>
      <point x="222" y="151.0" type="line" smooth="yes"/>
      <point x="251.0" y="151.0"/>
      <point x="289.0" y="107.0"/>
      <point x="289" y="75.0" type="qcurve" smooth="yes"/>
      <point x="289" y="72" type="line" smooth="yes"/>
      <point x="289" y="39"/>
      <point x="207" y="-86"/>
      <point x="198" y="-148" type="qcurve"/>
    </contour>
  </outline>
</glyph>
<glyph name="equal" format="2">
  <advance width="1000"/>
  <unicode hex="003D"/>
  <outline>
    <contour>
      <point x="953" y="480" type="line"/>
      <point x="46" y="480" type="line"/>
      <point x="46" y="565" type="line"/>
      <point x="954" y="565" type="line"/>
    </contour>
    <contour>
      <point x="953" y="890" type="line"/>
      <point x="46" y="890" type="line"/>
      <point x="46" y="975" type="line"/>
      <point x="953" y="975" type="line"/>
    </contour>
  </outline>
</glyph>
<glyph name="greater" format="2">
  <advance width="250"/>
  <unicode hex="003E"/>
  <outline>
    <contour>
      <point x="442.0" y="781.0" type="line"/>
      <point x="442.0" y="670.0" type="line"/>
      <point x="-198.0" y="270.0" type="line"/>
      <point x="-198.0" y="382.0" type="line"/>
      <point x="364.0" y="718.0" type="line"/>
      <point x="-198.0" y="1044.0" type="line"/>
      <point x="-198.0" y="1166.0" type="line"/>
    </contour>
  </outline>
</glyph>
<glyph name="at" format="2">
  <advance width="1287"/>
  <unicode hex="0040"/>
  <outline>
    <contour>
      <point x="835" y="855" type="qcurve" smooth="yes"/>
      <point x="798" y="567" type="line" smooth="yes"/>
      <point x="783" y="450"/>
      <point x="655" y="311"/>
      <point x="553" y="313" type="qcurve" smooth="yes"/>
      <point x="549" y="313" type="line" smooth="yes"/>
      <point x="429.0" y="315"/>
      <point x="313" y="481"/>
      <point x="346" y="678" type="qcurve" smooth="yes"/>
      <point x="370" y="853" type="line" smooth="yes"/>
      <point x="392" y="980"/>
      <point x="557.0" y="1161.0"/>
      <point x="670" y="1158" type="qcurve" smooth="yes"/>
      <point x="674" y="1158" type="line" smooth="yes"/>
      <point x="758.0" y="1156.0"/>
      <point x="852" y="989"/>
    </contour>
    <contour>
      <point x="821" y="793" type="line" smooth="yes"/>
      <point x="837" y="920"/>
      <point x="739" y="1086"/>
      <point x="674" y="1088" type="qcurve" smooth="yes"/>
      <point x="670" y="1088" type="line" smooth="yes"/>
      <point x="600" y="1089"/>
      <point x="456" y="919"/>
      <point x="445" y="833" type="qcurve" smooth="yes"/>
      <point x="422" y="655" type="line" smooth="yes"/>
      <point x="403" y="531"/>
      <point x="482" y="364"/>
      <point x="604" y="364" type="qcurve" smooth="yes"/>
      <point x="608" y="364" type="line" smooth="yes"/>
      <point x="675" y="364.0"/>
      <point x="791" y="562"/>
      <point x="806" y="672" type="qcurve" smooth="yes"/>
    </contour>
    <contour>
      <point x="804" y="513" type="qcurve" smooth="yes"/>
      <point x="879" y="1133" type="line"/>
      <point x="940" y="1131" type="line"/>
      <point x="853" y="496" type="line" smooth="yes"/>
      <point x="845" y="440"/>
      <point x="874" y="381.0"/>
      <point x="937" y="381" type="qcurve" smooth="yes"/>
      <point x="1033" y="381"/>
      <point x="1187" y="629"/>
      <point x="1187.0" y="806.0" type="qcurve" smooth="yes"/>
      <point x="1187" y="1078"/>
      <point x="914" y="1464.0"/>
      <point x="672" y="1464.0" type="qcurve" smooth="yes"/>
      <point x="436" y="1464.0"/>
      <point x="140" y="1046.0"/>
      <point x="140" y="713.0" type="qcurve" smooth="yes"/>
      <point x="140" y="355.0"/>
      <point x="430" y="-44"/>
      <point x="657" y="-44.0" type="qcurve" smooth="yes"/>
      <point x="817" y="-44.0"/>
      <point x="1032" y="88.0"/>
      <point x="1076" y="144.0" type="qcurve"/>
      <point x="1118" y="98" type="line"/>
      <point x="1078" y="33"/>
      <point x="861" y="-102.0"/>
      <point x="654" y="-102" type="qcurve" smooth="yes"/>
      <point x="397" y="-102"/>
      <point x="60" y="322"/>
      <point x="60" y="715" type="qcurve" smooth="yes"/>
      <point x="60" y="1077"/>
      <point x="398" y="1524"/>
      <point x="670" y="1524" type="qcurve" smooth="yes"/>
      <point x="942" y="1524"/>
      <point x="1260.0" y="1117.0"/>
      <point x="1260.0" y="806.0" type="qcurve" smooth="yes"/>
      <point x="1260" y="603"/>
      <point x="1081.0" y="319.0"/>
      <point x="942" y="319" type="qcurve" smooth="yes"/>
      <point x="851" y="319"/>
      <point x="793" y="426"/>
    </contour>
  </outline>
</glyph>
<glyph name="A" format="2">
  <advance width="510"/>
  <unicode hex="0041"/>
  <outline>
    <contour>
      <point x="380" y="479" type="line"/>
      <point x="100" y="479" type="line"/>
      <point x="100" y="547" type="line"/>
      <point x="380" y="547" type="line"/>
    </contour>
    <contour>
      <point x="340" y="1500" type="line"/>
      <point x="510" y="0" type="line"/>
      <point x="419" y="0" type="line"/>
      <point x="253" y="1425" type="line"/>
      <point x="252" y="1425" type="line"/>
      <point x="83" y="0" type="line"/>
      <point x="0" y="0" type="line"/>
      <point x="170" y="1500" type="line"/>
    </contour>
  </outline>
</glyph>
<glyph name="B" format="2">
  <advance width="760"/>
  <unicode hex="0042"/>
  <outline>
    <contour>
      <point x="131" y="0" type="line"/>
      <point x="131" y="1500" type="line"/>
      <point x="222" y="1500" type="line"/>
      <point x="222" y="0" type="line"/>
    </contour>
    <contour>
      <point x="331" y="806" type="line"/>
      <point x="534" y="806"/>
      <point x="705" y="648"/>
      <point x="705.0" y="494" type="qcurve" smooth="yes"/>
      <point x="705.0" y="326" type="line" smooth="yes"/>
      <point x="705.0" y="166"/>
      <point x="539.0" y="0.0"/>
      <point x="385" y="0" type="qcurve" smooth="yes"/>
      <point x="179" y="0" type="line"/>
      <point x="179" y="82" type="line"/>
      <point x="377" y="82" type="line" smooth="yes"/>
      <point x="495.0" y="82.0"/>
      <point x="607" y="227"/>
      <point x="607" y="341" type="qcurve" smooth="yes"/>
      <point x="607" y="468" type="line" smooth="yes"/>
      <point x="607" y="598"/>
      <point x="491.0" y="740.0"/>
      <point x="371" y="740" type="qcurve" smooth="yes"/>
      <point x="179" y="740" type="line"/>
      <point x="179" y="811" type="line"/>
      <point x="377" y="811" type="line" smooth="yes"/>
      <point x="480.0" y="811.0"/>
      <point x="567.0" y="922"/>
      <point x="567.0" y="1023" type="qcurve" smooth="yes"/>
      <point x="567.0" y="1236" type="line" smooth="yes"/>
      <point x="567.0" y="1336.0"/>
      <point x="463.0" y="1418.0"/>
      <point x="394" y="1418" type="qcurve" smooth="yes"/>
      <point x="179" y="1418" type="line"/>
      <point x="179" y="1500" type="line"/>
      <point x="364" y="1500" type="line" smooth="yes"/>
      <point x="525.0" y="1500.0"/>
      <point x="667" y="1354"/>
      <point x="667.0" y="1226" type="qcurve" smooth="yes"/>
      <point x="667" y="1038" type="line" smooth="yes"/>
      <point x="667.0" y="895.0"/>
      <point x="488.0" y="740.0"/>
      <point x="261" y="740" type="qcurve"/>
    </contour>
  </outline>
</glyph>
<glyph name="C" format="2">
  <advance width="780"/>
  <unicode hex="0043"/>
  <outline>
    <contour>
      <point x="410" y="88" type="line" smooth="yes"/>
      <point x="524" y="88"/>
      <point x="599.0" y="253"/>
      <point x="595" y="349" type="qcurve" smooth="yes"/>
      <point x="594" y="537" type="line"/>
      <point x="675" y="542" type="line"/>
      <point x="675" y="293" type="line" smooth="yes"/>
      <point x="675" y="158"/>
      <point x="539" y="-8"/>
      <point x="420" y="-8" type="qcurve" smooth="yes"/>
      <point x="386" y="-8" type="line" smooth="yes"/>
      <point x="249" y="-8"/>
      <point x="96" y="208"/>
      <point x="96" y="387" type="qcurve" smooth="yes"/>
      <point x="96" y="1110" type="line" smooth="yes"/>
      <point x="96" y="1288"/>
      <point x="253" y="1502"/>
      <point x="366" y="1502" type="qcurve" smooth="yes"/>
      <point x="404" y="1502" type="line" smooth="yes"/>
      <point x="546" y="1502"/>
      <point x="688" y="1344"/>
      <point x="680" y="1211" type="qcurve" smooth="yes"/>
      <point x="679" y="957" type="line"/>
      <point x="600" y="967" type="line"/>
      <point x="601" y="1183" type="line" smooth="yes"/>
      <point x="608.0" y="1280.0"/>
      <point x="501" y="1408"/>
      <point x="414" y="1408" type="qcurve" smooth="yes"/>
      <point x="394" y="1408" type="line" smooth="yes"/>
      <point x="295.0" y="1408.0"/>
      <point x="189.0" y="1278.0"/>
      <point x="189" y="1172" type="qcurve" smooth="yes"/>
      <point x="189" y="325" type="line" smooth="yes"/>
      <point x="189" y="223.0"/>
      <point x="280" y="88"/>
      <point x="371" y="88" type="qcurve" smooth="yes"/>
    </contour>
  </outline>
</glyph>
<glyph name="D" format="2">
  <advance width="781"/>
  <unicode hex="0044"/>
  <outline>
    <contour>
      <point x="110" y="0" type="line"/>
      <point x="110" y="1500" type="line"/>
      <point x="200" y="1500" type="line"/>
      <point x="200" y="0" type="line"/>
    </contour>
    <contour>
      <point x="390" y="84" type="line" smooth="yes"/>
      <point x="490" y="84"/>
      <point x="595" y="211"/>
      <point x="595" y="309" type="qcurve" smooth="yes"/>
      <point x="595" y="1195" type="line" smooth="yes"/>
      <point x="595" y="1287"/>
      <point x="493" y="1415"/>
      <point x="392" y="1416" type="qcurve" smooth="yes"/>
      <point x="156" y="1416" type="line"/>
      <point x="156" y="1500" type="line"/>
      <point x="381" y="1500" type="line" smooth="yes"/>
      <point x="538" y="1500"/>
      <point x="689" y="1303"/>
      <point x="689" y="1120" type="qcurve" smooth="yes"/>
      <point x="689" y="385" type="line" smooth="yes"/>
      <point x="689" y="197"/>
      <point x="536" y="0"/>
      <point x="404" y="0" type="qcurve" smooth="yes"/>
      <point x="156" y="0" type="line"/>
      <point x="156" y="84" type="line"/>
    </contour>
  </outline>
</glyph>
<glyph name="E" format="2">
  <advance width="660"/>
  <unicode hex="0045"/>
  <outline>
    <contour>
      <point x="110" y="0" type="line"/>
      <point x="110" y="1500" type="line"/>
      <point x="200" y="1500" type="line"/>
      <point x="200" y="0" type="line"/>
    </contour>
    <contour>
      <point x="520" y="752" type="line"/>
      <point x="151" y="752" type="line"/>
      <point x="151" y="836" type="line"/>
      <point x="520" y="836" type="line"/>
    </contour>
    <contour>
      <point x="580" y="1416" type="line"/>
      <point x="151" y="1416" type="line"/>
      <point x="151" y="1500" type="line"/>
      <point x="580" y="1500" type="line"/>
    </contour>
    <contour>
      <point x="580" y="0" type="line"/>
      <point x="151" y="0" type="line"/>
      <point x="151" y="84" type="line"/>
      <point x="580" y="84" type="line"/>
    </contour>
  </outline>
</glyph>
<glyph name="F" format="2">
  <advance width="615"/>
  <unicode hex="0046"/>
  <outline>
    <contour>
      <point x="110" y="0" type="line"/>
      <point x="110" y="1500" type="line"/>
      <point x="200" y="1500" type="line"/>
      <point x="200" y="0" type="line"/>
    </contour>
    <contour>
      <point x="540" y="738" type="line"/>
      <point x="150" y="738" type="line"/>
      <point x="150" y="822" type="line"/>
      <point x="540" y="822" type="line"/>
    </contour>
    <contour>
      <point x="580" y="1416" type="line"/>
      <point x="150" y="1416" type="line"/>
      <point x="150" y="1500" type="line"/>
      <point x="580" y="1500" type="line"/>
    </contour>
  </outline>
</glyph>
<glyph name="G" format="2">
  <advance width="711"/>
  <unicode hex="0047"/>
  <outline>
    <contour>
      <point x="376" y="81.0" type="line" smooth="yes"/>
      <point x="481.0" y="81.0"/>
      <point x="538" y="204"/>
      <point x="531" y="327" type="qcurve" smooth="yes"/>
      <point x="528" y="611.0" type="line"/>
      <point x="413" y="610.0" type="line"/>
      <point x="413" y="694.0" type="line"/>
      <point x="606" y="695.0" type="line"/>
      <point x="606.0" y="279" type="line" smooth="yes"/>
      <point x="606" y="148"/>
      <point x="492" y="-6"/>
      <point x="389" y="-6.0" type="qcurve" smooth="yes"/>
      <point x="345" y="-6.0" type="line" smooth="yes"/>
      <point x="238" y="-6"/>
      <point x="96" y="215.0"/>
      <point x="96" y="391.0" type="qcurve" smooth="yes"/>
      <point x="96" y="1112.0" type="line" smooth="yes"/>
      <point x="96" y="1280"/>
      <point x="234.0" y="1503.0"/>
      <point x="326" y="1503.0" type="qcurve" smooth="yes"/>
      <point x="379" y="1503.0" type="line" smooth="yes"/>
      <point x="477.0" y="1503.0"/>
      <point x="605" y="1354"/>
      <point x="605" y="1211.0" type="qcurve" smooth="yes"/>
      <point x="605" y="1007.0" type="line"/>
      <point x="537" y="1007.0" type="line"/>
      <point x="539" y="1175.0" type="line" smooth="yes"/>
      <point x="552" y="1273"/>
      <point x="453.0" y="1409.0"/>
      <point x="385" y="1409.0" type="qcurve" smooth="yes"/>
      <point x="353" y="1409.0" type="line" smooth="yes"/>
      <point x="291.0" y="1409.0"/>
      <point x="185" y="1264.0"/>
      <point x="185" y="1170.0" type="qcurve" smooth="yes"/>
      <point x="185" y="330.0" type="line" smooth="yes"/>
      <point x="185" y="227.0"/>
      <point x="275" y="81"/>
      <point x="351" y="81.0" type="qcurve" smooth="yes"/>
    </contour>
  </outline>
</glyph>
<glyph name="I" format="2">
  <advance width="190"/>
  <unicode hex="0049"/>
  <outline>
    <contour>
      <point x="48" y="0" type="line"/>
      <point x="48" y="1500" type="line"/>
      <point x="142" y="1500" type="line"/>
      <point x="142" y="0" type="line"/>
    </contour>
    <contour>
      <point x="-89" y="0" type="line"/>
      <point x="271" y="0" type="line"/>
      <point x="271" y="84" type="line"/>
      <point x="-89" y="84" type="line"/>
    </contour>
    <contour>
      <point x="-89" y="1416" type="line"/>
      <point x="271" y="1416" type="line"/>
      <point x="271" y="1500" type="line"/>
      <point x="-89" y="1500" type="line"/>
    </contour>
  </outline>
</glyph>
<glyph name="J" format="2">
  <advance width="584"/>
  <unicode hex="004A"/>
  <outline>
    <contour>
      <point x="486.0" y="284.0" type="line" smooth="yes"/>
      <point x="486.0" y="127.0"/>
      <point x="359" y="-7"/>
      <point x="229" y="-7" type="qcurve" smooth="yes"/>
      <point x="234" y="-7" type="line" smooth="yes"/>
      <point x="115" y="-7"/>
      <point x="-8" y="141"/>
      <point x="-13" y="280" type="qcurve" smooth="yes"/>
      <point x="-12" y="352" type="line"/>
      <point x="80" y="340" type="line"/>
      <point x="80" y="243" type="line" smooth="yes"/>
      <point x="80.0" y="169.0"/>
      <point x="155" y="88"/>
      <point x="227" y="88" type="qcurve" smooth="yes"/>
      <point x="241" y="88" type="line" smooth="yes"/>
      <point x="311" y="88"/>
      <point x="396.0" y="159.0"/>
      <point x="396.0" y="262.0" type="qcurve" smooth="yes"/>
      <point x="396" y="1510" type="line"/>
      <point x="486" y="1500" type="line"/>
    </contour>
  </outline>
</glyph>
<glyph name="K" format="2">
  <advance width="603"/>
  <unicode hex="004B"/>
  <outline>
    <contour>
      <point x="110" y="0" type="line"/>
      <point x="110" y="1500" type="line"/>
      <point x="200" y="1500" type="line"/>
      <point x="200" y="843" type="line"/>
      <point x="305" y="1060" type="line"/>
      <point x="468" y="1500" type="line"/>
      <point x="560" y="1500" type="line"/>
      <point x="338" y="861" type="line"/>
      <point x="299" y="842" type="line"/>
      <point x="200" y="624" type="line"/>
      <point x="200" y="0" type="line"/>
    </contour>
    <contour>
      <point x="255" y="776" type="line"/>
      <point x="295" y="943" type="line"/>
      <point x="605" y="0" type="line"/>
      <point x="523" y="0" type="line"/>
    </contour>
  </outline>
</glyph>
<glyph name="L" format="2">
  <advance width="539"/>
  <unicode hex="004C"/>
  <outline>
    <contour>
      <point x="110" y="0" type="line"/>
      <point x="110" y="1500" type="line"/>
      <point x="200" y="1500" type="line"/>
      <point x="200" y="0" type="line"/>
    </contour>
    <contour>
      <point x="522" y="0" type="line"/>
      <point x="160" y="0" type="line"/>
      <point x="160" y="84" type="line"/>
      <point x="522" y="84" type="line"/>
    </contour>
  </outline>
</glyph>
<glyph name="M" format="2">
  <advance width="978"/>
  <unicode hex="004D"/>
  <outline>
    <contour>
      <point x="110" y="0" type="line"/>
      <point x="110" y="1500" type="line"/>
      <point x="203" y="1500" type="line"/>
      <point x="498" y="195" type="line"/>
      <point x="491" y="195" type="line"/>
      <point x="775" y="1500" type="line"/>
      <point x="873" y="1500" type="line"/>
      <point x="873" y="0" type="line"/>
      <point x="784" y="0" type="line"/>
      <point x="784" y="1135" type="line"/>
      <point x="526" y="0" type="line"/>
      <point x="456" y="0" type="line"/>
      <point x="198" y="1125" type="line"/>
      <point x="198" y="0" type="line"/>
    </contour>
  </outline>
</glyph>
<glyph name="N" format="2">
  <advance width="708"/>
  <unicode hex="004E"/>
  <outline>
    <contour>
      <point x="110" y="0" type="line"/>
      <point x="110" y="1500" type="line"/>
      <point x="188" y="1500" type="line"/>
      <point x="524" y="351" type="line"/>
      <point x="524" y="1500" type="line"/>
      <point x="598" y="1500" type="line"/>
      <point x="598" y="0" type="line"/>
      <point x="505" y="0" type="line"/>
      <point x="505" y="3" type="line"/>
      <point x="184" y="1158" type="line"/>
      <point x="184" y="0" type="line"/>
    </contour>
  </outline>
</glyph>
<glyph name="O" format="2">
  <advance width="763"/>
  <unicode hex="004F"/>
  <outline>
    <contour>
      <point x="381" y="-8.0" type="line" smooth="yes"/>
      <point x="254.0" y="-8"/>
      <point x="92" y="210.0"/>
      <point x="92" y="386" type="qcurve" smooth="yes"/>
      <point x="92" y="1101" type="line" smooth="yes"/>
      <point x="92" y="1285.0"/>
      <point x="258.0" y="1503.0"/>
      <point x="379" y="1503.0" type="qcurve" smooth="yes"/>
      <point x="382" y="1503.0" type="line" smooth="yes"/>
      <point x="515" y="1503.0"/>
      <point x="671.0" y="1285.0"/>
      <point x="671" y="1120.0" type="qcurve" smooth="yes"/>
      <point x="671" y="374.0" type="line" smooth="yes"/>
      <point x="671.0" y="210.0"/>
      <point x="516.0" y="-8.0"/>
      <point x="384" y="-8.0" type="qcurve" smooth="yes"/>
    </contour>
    <contour>
      <point x="383.0" y="84" type="line" smooth="yes"/>
      <point x="476" y="84"/>
      <point x="578.0" y="215.0"/>
      <point x="578.0" y="326" type="qcurve" smooth="yes"/>
      <point x="578.0" y="1163" type="line" smooth="yes"/>
      <point x="578.0" y="1278.0"/>
      <point x="478" y="1411"/>
      <point x="383.0" y="1411.0" type="qcurve" smooth="yes"/>
      <point x="379.0" y="1411.0" type="line" smooth="yes"/>
      <point x="288" y="1411"/>
      <point x="185.0" y="1298.0"/>
      <point x="185.0" y="1176" type="qcurve" smooth="yes"/>
      <point x="185.0" y="318" type="line" smooth="yes"/>
      <point x="185" y="215.0"/>
      <point x="277" y="84"/>
      <point x="379.0" y="84" type="qcurve" smooth="yes"/>
    </contour>
  </outline>
</glyph>
<glyph name="P" format="2">
  <advance width="730"/>
  <unicode hex="0050"/>
  <outline>
    <contour>
      <point x="110" y="0" type="line"/>
      <point x="110" y="1500" type="line"/>
      <point x="199" y="1500" type="line"/>
      <point x="199" y="0" type="line"/>
    </contour>
    <contour>
      <point x="415" y="671" type="qcurve" smooth="yes"/>
      <point x="152" y="671" type="line"/>
      <point x="152" y="755" type="line"/>
      <point x="446" y="755" type="line" smooth="yes"/>
      <point x="498.0" y="755.0"/>
      <point x="577" y="817"/>
      <point x="577" y="915" type="qcurve" smooth="yes"/>
      <point x="577" y="1259" type="line" smooth="yes"/>
      <point x="577" y="1323"/>
      <point x="524.0" y="1416.0"/>
      <point x="448" y="1416" type="qcurve" smooth="yes"/>
      <point x="152" y="1416" type="line"/>
      <point x="152" y="1500" type="line"/>
      <point x="469" y="1500" type="line" smooth="yes"/>
      <point x="577.0" y="1500.0"/>
      <point x="670" y="1383"/>
      <point x="670" y="1297" type="qcurve" smooth="yes"/>
      <point x="670" y="876" type="line" smooth="yes"/>
      <point x="670" y="769"/>
      <point x="556.0" y="671.0"/>
    </contour>
  </outline>
</glyph>
<glyph name="Q" format="2">
  <advance width="763"/>
  <unicode hex="0051"/>
  <outline>
    <contour>
      <point x="381" y="2.0" type="line" smooth="yes"/>
      <point x="254" y="2"/>
      <point x="92" y="210.0"/>
      <point x="92" y="396" type="qcurve" smooth="yes"/>
      <point x="92" y="1101" type="line" smooth="yes"/>
      <point x="92" y="1285.0"/>
      <point x="258.0" y="1503.0"/>
      <point x="379" y="1503.0" type="qcurve" smooth="yes"/>
      <point x="382" y="1503.0" type="line" smooth="yes"/>
      <point x="515" y="1503.0"/>
      <point x="671.0" y="1285.0"/>
      <point x="671" y="1120.0" type="qcurve" smooth="yes"/>
      <point x="671" y="384.0" type="line" smooth="yes"/>
      <point x="671.0" y="210.0"/>
      <point x="506.0" y="2.0"/>
      <point x="384" y="2.0" type="qcurve" smooth="yes"/>
    </contour>
    <contour>
      <point x="388.0" y="84" type="line" smooth="yes"/>
      <point x="481" y="84"/>
      <point x="583.0" y="215.0"/>
      <point x="583.0" y="326" type="qcurve" smooth="yes"/>
      <point x="583.0" y="1163" type="line" smooth="yes"/>
      <point x="583" y="1278"/>
      <point x="483" y="1411"/>
      <point x="388.0" y="1411.0" type="qcurve" smooth="yes"/>
      <point x="384.0" y="1411.0" type="line" smooth="yes"/>
      <point x="293" y="1411"/>
      <point x="190" y="1298.0"/>
      <point x="190.0" y="1176" type="qcurve" smooth="yes"/>
      <point x="190.0" y="318" type="line" smooth="yes"/>
      <point x="190.0" y="215.0"/>
      <point x="282" y="84"/>
      <point x="384.0" y="84" type="qcurve" smooth="yes"/>
    </contour>
    <contour>
      <point x="303" y="68" type="line"/>
      <point x="766" y="53" type="line"/>
      <point x="766" y="-42" type="line"/>
      <point x="304" y="8" type="line"/>
    </contour>
  </outline>
</glyph>
<glyph name="R" format="2">
  <advance width="639"/>
  <unicode hex="0052"/>
  <outline>
    <contour>
      <point x="110" y="0" type="line"/>
      <point x="110" y="1500" type="line"/>
      <point x="200" y="1500" type="line"/>
      <point x="200" y="0" type="line"/>
    </contour>
    <contour>
      <point x="370" y="673" type="qcurve" smooth="yes"/>
      <point x="160" y="673" type="line"/>
      <point x="160" y="757" type="line"/>
      <point x="322" y="757" type="line" smooth="yes"/>
      <point x="412.0" y="757.0"/>
      <point x="480" y="832"/>
      <point x="480" y="902" type="qcurve" smooth="yes"/>
      <point x="480" y="1255" type="line" smooth="yes"/>
      <point x="480" y="1329"/>
      <point x="406.0" y="1416.0"/>
      <point x="324" y="1416" type="qcurve" smooth="yes"/>
      <point x="160" y="1416" type="line"/>
      <point x="160" y="1500" type="line"/>
      <point x="377" y="1500" type="line" smooth="yes"/>
      <point x="471.0" y="1500.0"/>
      <point x="586" y="1400"/>
      <point x="586" y="1302" type="qcurve" smooth="yes"/>
      <point x="586" y="868" type="line" smooth="yes"/>
      <point x="586" y="783"/>
      <point x="478.0" y="673.0"/>
    </contour>
    <contour>
      <point x="449" y="726" type="line"/>
      <point x="613" y="0" type="line"/>
      <point x="535" y="0" type="line"/>
      <point x="353" y="701" type="line"/>
    </contour>
  </outline>
</glyph>
<glyph name="S" format="2">
  <advance width="660"/>
  <unicode hex="0053"/>
  <outline>
    <contour>
      <point x="502.0" y="378.0" type="line" smooth="yes"/>
      <point x="502.0" y="504.0"/>
      <point x="369" y="670"/>
      <point x="282" y="761" type="qcurve" smooth="yes"/>
      <point x="183" y="871"/>
      <point x="73" y="1058.0"/>
      <point x="73" y="1210" type="qcurve" smooth="yes"/>
      <point x="73" y="1250" type="line" smooth="yes"/>
      <point x="73" y="1385.0"/>
      <point x="223.0" y="1503.0"/>
      <point x="325" y="1503" type="qcurve" smooth="yes"/>
      <point x="339" y="1503" type="line" smooth="yes"/>
      <point x="442" y="1503"/>
      <point x="593.0" y="1395.0"/>
      <point x="585" y="1282" type="qcurve" smooth="yes"/>
      <point x="585" y="1106" type="line"/>
      <point x="494" y="1106.0" type="line"/>
      <point x="494.0" y="1259" type="line" smooth="yes"/>
      <point x="494.0" y="1344.0"/>
      <point x="406.0" y="1403.0"/>
      <point x="339.0" y="1403" type="qcurve" smooth="yes"/>
      <point x="323.0" y="1403" type="line" smooth="yes"/>
      <point x="259.0" y="1403.0"/>
      <point x="168" y="1322.0"/>
      <point x="168.0" y="1249" type="qcurve" smooth="yes"/>
      <point x="168.0" y="1131" type="line" smooth="yes"/>
      <point x="168" y="1037"/>
      <point x="275" y="916"/>
      <point x="353" y="838" type="qcurve" smooth="yes"/>
      <point x="440" y="748"/>
      <point x="592.0" y="540.0"/>
      <point x="592.0" y="368.0" type="qcurve" smooth="yes"/>
      <point x="592.0" y="342.0" type="line" smooth="yes"/>
      <point x="592" y="187"/>
      <point x="455.0" y="-7.0"/>
      <point x="343" y="-7.0" type="qcurve" smooth="yes"/>
      <point x="330" y="-7.0" type="line" smooth="yes"/>
      <point x="223.0" y="-7"/>
      <point x="70" y="164.0"/>
      <point x="70" y="321.0" type="qcurve" smooth="yes"/>
      <point x="70" y="434.0" type="line"/>
      <point x="149" y="434.0" type="line"/>
      <point x="149.0" y="272" type="line" smooth="yes"/>
      <point x="149" y="173"/>
      <point x="252" y="79"/>
      <point x="330.0" y="79" type="qcurve" smooth="yes"/>
      <point x="346.0" y="79" type="line" smooth="yes"/>
      <point x="427.0" y="79.0"/>
      <point x="502.0" y="223.0"/>
      <point x="502.0" y="344" type="qcurve" smooth="yes"/>
    </contour>
  </outline>
</glyph>
<glyph name="T" format="2">
  <advance width="566"/>
  <unicode hex="0054"/>
  <outline>
    <contour>
      <point x="238" y="0" type="line"/>
      <point x="238" y="1460" type="line"/>
      <point x="328" y="1460" type="line"/>
      <point x="328" y="0" type="line"/>
    </contour>
    <contour>
      <point x="568" y="1416" type="line"/>
      <point x="-2" y="1416" type="line"/>
      <point x="-2" y="1500" type="line"/>
      <point x="568" y="1500" type="line"/>
    </contour>
  </outline>
</glyph>
<glyph name="U" format="2">
  <advance width="774"/>
  <unicode hex="0055"/>
  <outline>
    <contour>
      <point x="110" y="1500" type="line"/>
      <point x="200" y="1500" type="line"/>
      <point x="200" y="237" type="line" smooth="yes"/>
      <point x="200.0" y="179.0"/>
      <point x="299.0" y="84"/>
      <point x="381" y="84" type="qcurve" smooth="yes"/>
      <point x="394" y="84" type="line" smooth="yes"/>
      <point x="477" y="84"/>
      <point x="577.0" y="191.0"/>
      <point x="577" y="246" type="qcurve" smooth="yes"/>
      <point x="576" y="1500" type="line"/>
      <point x="664" y="1500" type="line"/>
      <point x="660" y="295" type="line" smooth="yes"/>
      <point x="659.0" y="146.0"/>
      <point x="519.0" y="-9.0"/>
      <point x="399" y="-9" type="qcurve" smooth="yes"/>
      <point x="366" y="-9" type="line" smooth="yes"/>
      <point x="268.0" y="-9"/>
      <point x="110" y="143.0"/>
      <point x="110" y="300" type="qcurve" smooth="yes"/>
    </contour>
  </outline>
</glyph>
<glyph name="V" format="2">
  <advance width="660"/>
  <unicode hex="0056"/>
  <outline>
    <contour>
      <point x="305" y="0" type="line"/>
      <point x="-20" y="1500" type="line"/>
      <point x="70" y="1500" type="line"/>
      <point x="339" y="289" type="line"/>
      <point x="593" y="1500" type="line"/>
      <point x="690" y="1500" type="line"/>
      <point x="365" y="0" type="line"/>
    </contour>
  </outline>
</glyph>
<glyph name="W" format="2">
  <advance width="1002"/>
  <unicode hex="0057"/>
  <outline>
    <contour>
      <point x="241" y="0" type="line"/>
      <point x="16" y="1500" type="line"/>
      <point x="76" y="1500" type="line"/>
      <point x="274" y="290" type="line"/>
      <point x="439" y="1500" type="line"/>
      <point x="525" y="1500" type="line"/>
      <point x="688" y="295" type="line"/>
      <point x="871" y="1500" type="line"/>
      <point x="936" y="1500" type="line"/>
      <point x="721" y="0" type="line"/>
      <point x="651" y="0" type="line"/>
      <point x="488" y="1233" type="line"/>
      <point x="486" y="1235" type="line"/>
      <point x="311" y="0" type="line"/>
    </contour>
  </outline>
</glyph>
<glyph name="X" format="2">
  <advance width="420"/>
  <unicode hex="0058"/>
  <outline>
    <contour>
      <point x="-10" y="0" type="line"/>
      <point x="179" y="875" type="line"/>
      <point x="190" y="848" type="line"/>
      <point x="317" y="1500" type="line"/>
      <point x="402" y="1500" type="line"/>
      <point x="251" y="716" type="line"/>
      <point x="234" y="735" type="line"/>
      <point x="75" y="0" type="line"/>
    </contour>
    <contour>
      <point x="341" y="0" type="line"/>
      <point x="183" y="675" type="line"/>
      <point x="176" y="721" type="line"/>
      <point x="3" y="1500" type="line"/>
      <point x="93" y="1500" type="line"/>
      <point x="238" y="879" type="line"/>
      <point x="237" y="845" type="line"/>
      <point x="430" y="0" type="line"/>
    </contour>
  </outline>
</glyph>
<glyph name="Y" format="2">
  <advance width="590"/>
  <unicode hex="0059"/>
  <outline>
    <contour>
      <point x="255" y="600" type="line"/>
      <point x="20" y="1500" type="line"/>
      <point x="110" y="1500" type="line"/>
      <point x="295" y="796" type="line"/>
      <point x="481" y="1500" type="line"/>
      <point x="570" y="1500" type="line"/>
      <point x="333" y="600" type="line"/>
    </contour>
    <contour>
      <point x="249" y="0" type="line"/>
      <point x="249" y="670" type="line"/>
      <point x="339" y="670" type="line"/>
      <point x="339" y="0" type="line"/>
    </contour>
  </outline>
</glyph>
<glyph name="Z" format="2">
  <advance width="538"/>
  <unicode hex="005A"/>
  <outline>
    <contour>
      <point x="480" y="0" type="line"/>
      <point x="34" y="0" type="line"/>
      <point x="29" y="79" type="line"/>
      <point x="398" y="1416" type="line"/>
      <point x="24" y="1416" type="line"/>
      <point x="24" y="1500" type="line"/>
      <point x="480" y="1500" type="line"/>
      <point x="480" y="1426" type="line"/>
      <point x="113" y="84" type="line"/>
      <point x="480" y="84" type="line"/>
    </contour>
  </outline>
</glyph>
<glyph name="bracketleft" format="2">
  <advance width="324"/>
  <unicode hex="005B"/>
  <outline>
    <contour>
      <point x="126" y="-280" type="line"/>
      <point x="126" y="1500" type="line"/>
      <point x="210" y="1500" type="line"/>
      <point x="210" y="-280" type="line"/>
    </contour>
    <contour>
      <point x="376" y="-280" type="line"/>
      <point x="169" y="-280" type="line"/>
      <point x="169" y="-200" type="line"/>
      <point x="376" y="-200" type="line"/>
    </contour>
    <contour>
      <point x="376" y="1420" type="line"/>
      <point x="164" y="1420" type="line"/>
      <point x="164" y="1500" type="line"/>
      <point x="376" y="1500" type="line"/>
    </contour>
  </outline>
</glyph>
<glyph name="asciicircum" format="2">
  <advance width="572"/>
  <unicode hex="005E"/>
  <outline>
    <contour>
      <point x="318.0" y="1513.0" type="line"/>
      <point x="674.0" y="833.0" type="line"/>
      <point x="564.0" y="833.0" type="line"/>
      <point x="284.0" y="1400.0" type="line"/>
      <point x="9.0" y="833.0" type="line"/>
      <point x="-102.0" y="833.0" type="line"/>
      <point x="248.0" y="1513.0" type="line"/>
    </contour>
  </outline>
</glyph>
<glyph name="underscore" format="2">
  <advance width="884"/>
  <unicode hex="005F"/>
  <outline>
    <contour>
      <point x="884" y="-500" type="line"/>
      <point x="0" y="-500" type="line"/>
      <point x="0" y="-418" type="line"/>
      <point x="884" y="-418" type="line"/>
    </contour>
  </outline>
</glyph>
<glyph name="grave" format="2">
  <advance width="500"/>
  <unicode hex="0060"/>
  <outline>
    <contour>
      <point x="285.0" y="1389.0" type="line"/>
      <point x="430.0" y="1058.0" type="line"/>
      <point x="338.0" y="1058.0" type="line"/>
      <point x="145.0" y="1389.0" type="line"/>
    </contour>
  </outline>
</glyph>
<glyph name="b" format="2">
  <advance width="680"/>
  <unicode hex="0062"/>
  <outline>
    <contour>
      <point x="98" y="0" type="line"/>
      <point x="98" y="1500" type="line"/>
      <point x="179" y="1500" type="line"/>
      <point x="179" y="0" type="line"/>
    </contour>
    <contour>
      <point x="174.0" y="704" type="line" smooth="yes"/>
      <point x="174" y="873.0"/>
      <point x="293.0" y="992.0"/>
      <point x="380" y="992" type="qcurve" smooth="yes"/>
      <point x="394" y="992" type="line" smooth="yes"/>
      <point x="509.0" y="992.0"/>
      <point x="634.0" y="822.0"/>
      <point x="634" y="688" type="qcurve" smooth="yes"/>
      <point x="634" y="340" type="line" smooth="yes"/>
      <point x="634.0" y="185.0"/>
      <point x="512.0" y="-17.0"/>
      <point x="393" y="-17" type="qcurve" smooth="yes"/>
      <point x="386.0" y="-17.0" type="line" smooth="yes"/>
      <point x="297.0" y="-17"/>
      <point x="174.0" y="77.0"/>
      <point x="174.0" y="256" type="qcurve" smooth="yes"/>
    </contour>
    <contour>
      <point x="193.0" y="672" type="qcurve" smooth="yes"/>
      <point x="193" y="317" type="line" smooth="yes"/>
      <point x="193.0" y="195.0"/>
      <point x="296.0" y="64"/>
      <point x="362" y="64" type="qcurve" smooth="yes"/>
      <point x="366" y="64" type="line" smooth="yes"/>
      <point x="443.0" y="64.0"/>
      <point x="559" y="192"/>
      <point x="559" y="317" type="qcurve" smooth="yes"/>
      <point x="559" y="668" type="line" smooth="yes"/>
      <point x="559.0" y="792.0"/>
      <point x="432.0" y="910.0"/>
      <point x="360" y="910" type="qcurve" smooth="yes"/>
      <point x="356.0" y="910.0" type="line" smooth="yes"/>
      <point x="303.0" y="910.0"/>
      <point x="193.0" y="796"/>
    </contour>
  </outline>
</glyph>
<glyph name="c" format="2">
  <advance width="557"/>
  <unicode hex="0063"/>
  <outline>
    <contour>
      <point x="541" y="351" type="line"/>
      <point x="540" y="289" type="line" smooth="yes"/>
      <point x="538" y="141"/>
      <point x="424" y="-15"/>
      <point x="305" y="-15" type="qcurve" smooth="yes"/>
      <point x="296" y="-15" type="line" smooth="yes"/>
      <point x="191" y="-15"/>
      <point x="46" y="131"/>
      <point x="46" y="339" type="qcurve" smooth="yes"/>
      <point x="46" y="688" type="line" smooth="yes"/>
      <point x="46" y="823"/>
      <point x="186" y="991"/>
      <point x="289" y="991" type="qcurve" smooth="yes"/>
      <point x="306" y="991" type="line" smooth="yes"/>
      <point x="409.0" y="991.0"/>
      <point x="535" y="845"/>
      <point x="535" y="707" type="qcurve" smooth="yes"/>
      <point x="537" y="602" type="line"/>
      <point x="463" y="603" type="line"/>
      <point x="461" y="689" type="line" smooth="yes"/>
      <point x="455" y="803"/>
      <point x="384" y="910"/>
      <point x="310" y="910" type="qcurve" smooth="yes"/>
      <point x="300" y="910" type="line" smooth="yes"/>
      <point x="217" y="910"/>
      <point x="125" y="787"/>
      <point x="125" y="673" type="qcurve" smooth="yes"/>
      <point x="125" y="299" type="line" smooth="yes"/>
      <point x="125" y="195"/>
      <point x="215.0" y="69"/>
      <point x="305" y="69" type="qcurve" smooth="yes"/>
      <point x="314" y="69" type="line" smooth="yes"/>
      <point x="384" y="69"/>
      <point x="464" y="166"/>
      <point x="465" y="267" type="qcurve" smooth="yes"/>
      <point x="467" y="353" type="line"/>
    </contour>
  </outline>
</glyph>
<glyph name="e" format="2">
  <advance width="573"/>
  <unicode hex="0065"/>
  <outline>
    <contour>
      <point x="520" y="308" type="line"/>
      <point x="520" y="286" type="line" smooth="yes"/>
      <point x="519" y="139"/>
      <point x="412" y="-17"/>
      <point x="302" y="-17" type="qcurve" smooth="yes"/>
      <point x="283" y="-17" type="line" smooth="yes"/>
      <point x="192" y="-17"/>
      <point x="46" y="149"/>
      <point x="46" y="327" type="qcurve" smooth="yes"/>
      <point x="46" y="687" type="line" smooth="yes"/>
      <point x="46" y="830"/>
      <point x="194" y="990"/>
      <point x="277" y="990" type="qcurve" smooth="yes"/>
      <point x="303" y="990" type="line" smooth="yes"/>
      <point x="409" y="990"/>
      <point x="527.0" y="793.0"/>
      <point x="542" y="586" type="qcurve" smooth="yes"/>
      <point x="544" y="490" type="line"/>
      <point x="45" y="490" type="line"/>
      <point x="45" y="567" type="line"/>
      <point x="453" y="567" type="line"/>
      <point x="452" y="648" type="line" smooth="yes"/>
      <point x="434" y="802"/>
      <point x="356" y="913"/>
      <point x="287" y="913" type="qcurve" smooth="yes"/>
      <point x="278" y="913" type="line" smooth="yes"/>
      <point x="235" y="913"/>
      <point x="130" y="786"/>
      <point x="130" y="658" type="qcurve" smooth="yes"/>
      <point x="130" y="302" type="line" smooth="yes"/>
      <point x="130" y="189"/>
      <point x="233" y="63"/>
      <point x="285" y="63" type="qcurve" smooth="yes"/>
      <point x="295" y="63" type="line" smooth="yes"/>
      <point x="358" y="63"/>
      <point x="430" y="156"/>
      <point x="442" y="268" type="qcurve" smooth="yes"/>
      <point x="444" y="318" type="line"/>
    </contour>
  </outline>
</glyph>
<glyph name="i" format="2">
  <advance width="194"/>
  <unicode hex="0069"/>
  <outline>
    <contour>
      <point x="16" y="0" type="line"/>
      <point x="16" y="980" type="line"/>
      <point x="95" y="980" type="line"/>
      <point x="95" y="0" type="line"/>
    </contour>
    <contour>
      <point x="55" y="1191" type="line" smooth="yes"/>
      <point x="86" y="1191"/>
      <point x="120" y="1227"/>
      <point x="120" y="1258" type="qcurve" smooth="yes"/>
      <point x="120" y="1262" type="line" smooth="yes"/>
      <point x="120" y="1292"/>
      <point x="86" y="1330"/>
      <point x="55" y="1330" type="qcurve" smooth="yes"/>
      <point x="54" y="1330" type="line" smooth="yes"/>
      <point x="24" y="1330"/>
      <point x="-9" y="1292"/>
      <point x="-9" y="1262" type="qcurve" smooth="yes"/>
      <point x="-9" y="1258" type="line" smooth="yes"/>
      <point x="-9" y="1227"/>
      <point x="24" y="1191"/>
      <point x="54" y="1191" type="qcurve" smooth="yes"/>
    </contour>
    <contour>
      <point x="99" y="845" type="line"/>
      <point x="289" y="845" type="line"/>
      <point x="289" y="980" type="line"/>
      <point x="99" y="980" type="line"/>
    </contour>
  </outline>
</glyph>
<glyph name="j" format="2">
  <advance width="225"/>
  <unicode hex="006A"/>
  <outline>
    <contour>
      <point x="114" y="-231" type="line" smooth="yes"/>
      <point x="114" y="-384"/>
      <point x="23" y="-500"/>
      <point x="-32" y="-500" type="qcurve" smooth="yes"/>
      <point x="-104" y="-500"/>
      <point x="-144" y="-491"/>
      <point x="-158" y="-484" type="qcurve"/>
      <point x="-138" y="-402" type="line"/>
      <point x="-129" y="-407"/>
      <point x="-98" y="-420"/>
      <point x="-70" y="-420" type="qcurve" smooth="yes"/>
      <point x="-20" y="-420"/>
      <point x="35" y="-321"/>
      <point x="35" y="-209" type="qcurve" smooth="yes"/>
      <point x="35" y="980" type="line"/>
      <point x="114" y="980" type="line"/>
    </contour>
    <contour>
      <point x="83" y="1191" type="line" smooth="yes"/>
      <point x="114" y="1191"/>
      <point x="148" y="1227"/>
      <point x="148" y="1258" type="qcurve" smooth="yes"/>
      <point x="148" y="1262" type="line" smooth="yes"/>
      <point x="148" y="1292"/>
      <point x="114" y="1330"/>
      <point x="83" y="1330" type="qcurve" smooth="yes"/>
      <point x="82" y="1330" type="line" smooth="yes"/>
      <point x="52" y="1330"/>
      <point x="19" y="1292"/>
      <point x="19" y="1262" type="qcurve" smooth="yes"/>
      <point x="19" y="1258" type="line" smooth="yes"/>
      <point x="19" y="1227"/>
      <point x="52" y="1191"/>
      <point x="82" y="1191" type="qcurve" smooth="yes"/>
    </contour>
    <contour>
      <point x="124" y="845" type="line"/>
      <point x="314" y="845" type="line"/>
      <point x="314" y="980" type="line"/>
      <point x="124" y="980" type="line"/>
    </contour>
  </outline>
</glyph>
<glyph name="l" format="2">
  <advance width="165"/>
  <unicode hex="006C"/>
  <outline>
    <contour>
      <point x="100" y="-61" type="qcurve" smooth="yes"/>
      <point x="100" y="1500" type="line"/>
      <point x="181" y="1500" type="line"/>
      <point x="181" y="0" type="line"/>
      <point x="74" y="0"/>
      <point x="100.0" y="-76.0"/>
    </contour>
    <contour>
      <point x="-109" y="29" type="line"/>
      <point x="70" y="9" type="line"/>
      <point x="40" y="44" type="line"/>
      <point x="-109" y="54" type="line"/>
    </contour>
  </outline>
</glyph>
<glyph name="m" format="2">
  <advance width="967"/>
  <unicode hex="006D"/>
  <outline>
    <contour>
      <point x="98" y="0" type="line"/>
      <point x="98" y="980" type="line"/>
      <point x="178" y="980" type="line"/>
      <point x="178" y="0" type="line"/>
    </contour>
    <contour>
      <point x="143" y="754" type="line"/>
      <point x="121" y="834"/>
      <point x="258" y="992"/>
      <point x="385" y="992" type="qcurve" smooth="yes"/>
      <point x="474" y="992"/>
      <point x="531" y="874"/>
      <point x="533" y="761" type="qcurve" smooth="yes"/>
      <point x="533" y="0" type="line"/>
      <point x="453" y="0" type="line"/>
      <point x="453" y="751" type="line" smooth="yes"/>
      <point x="453.0" y="846.0"/>
      <point x="384" y="920"/>
      <point x="337" y="920" type="qcurve" smooth="yes"/>
      <point x="263" y="920"/>
      <point x="173" y="821"/>
      <point x="147" y="707" type="qcurve"/>
    </contour>
    <contour>
      <point x="490" y="754" type="line"/>
      <point x="468" y="834"/>
      <point x="605" y="992"/>
      <point x="732" y="992" type="qcurve" smooth="yes"/>
      <point x="821" y="992"/>
      <point x="878" y="874"/>
      <point x="880" y="761" type="qcurve" smooth="yes"/>
      <point x="880" y="0" type="line"/>
      <point x="800" y="0" type="line"/>
      <point x="800" y="751" type="line" smooth="yes"/>
      <point x="800.0" y="846.0"/>
      <point x="731" y="920"/>
      <point x="684" y="920" type="qcurve" smooth="yes"/>
      <point x="610" y="920"/>
      <point x="520" y="821"/>
      <point x="494" y="707" type="qcurve"/>
    </contour>
  </outline>
</glyph>
<glyph name="s" format="2">
  <advance width="500"/>
  <unicode hex="0073"/>
  <outline>
    <contour>
      <point x="407.0" y="259" type="line" smooth="yes"/>
      <point x="407.0" y="324.0"/>
      <point x="320.0" y="423"/>
      <point x="215.0" y="478" type="qcurve" smooth="yes"/>
      <point x="105" y="538"/>
      <point x="5.0" y="670"/>
      <point x="5.0" y="759" type="qcurve" smooth="yes"/>
      <point x="5.0" y="771" type="line" smooth="yes"/>
      <point x="5.0" y="869"/>
      <point x="136.0" y="992"/>
      <point x="244.0" y="992" type="qcurve" smooth="yes"/>
      <point x="250.0" y="992" type="line" smooth="yes"/>
      <point x="333.0" y="992"/>
      <point x="468" y="868"/>
      <point x="471.0" y="760" type="qcurve" smooth="yes"/>
      <point x="470.0" y="741" type="line"/>
      <point x="385.0" y="741" type="line"/>
      <point x="384.0" y="752" type="line" smooth="yes"/>
      <point x="379.0" y="830"/>
      <point x="320" y="910"/>
      <point x="258.0" y="910" type="qcurve" smooth="yes"/>
      <point x="246.0" y="910" type="line" smooth="yes"/>
      <point x="180" y="910"/>
      <point x="88" y="837.0"/>
      <point x="88.0" y="762" type="qcurve" smooth="yes"/>
      <point x="88.0" y="758" type="line" smooth="yes"/>
      <point x="88" y="692.0"/>
      <point x="171.0" y="604"/>
      <point x="273.0" y="552" type="qcurve" smooth="yes"/>
      <point x="373.0" y="500"/>
      <point x="493.0" y="346.0"/>
      <point x="493.0" y="242" type="qcurve" smooth="yes"/>
      <point x="493.0" y="247" type="line" smooth="yes"/>
      <point x="493.0" y="149"/>
      <point x="362.0" y="-14.0"/>
      <point x="238.0" y="-14" type="qcurve" smooth="yes"/>
      <point x="229.0" y="-14" type="line" smooth="yes"/>
      <point x="124.0" y="-14"/>
      <point x="-14.0" y="137"/>
      <point x="-14.0" y="247" type="qcurve" smooth="yes"/>
      <point x="-14.0" y="244" type="line"/>
      <point x="71.0" y="244" type="line"/>
      <point x="71.0" y="262" type="line" smooth="yes"/>
      <point x="71" y="148"/>
      <point x="156.0" y="69.0"/>
      <point x="231.0" y="69" type="qcurve" smooth="yes"/>
      <point x="236.0" y="69" type="line" smooth="yes"/>
      <point x="346.0" y="69.0"/>
      <point x="407" y="168"/>
      <point x="407.0" y="246" type="qcurve" smooth="yes"/>
    </contour>
  </outline>
</glyph>
<glyph name="v" format="2">
  <advance width="561"/>
  <unicode hex="0076"/>
  <outline>
    <contour>
      <point x="248" y="0" type="line"/>
      <point x="-10" y="980" type="line"/>
      <point x="72" y="980" type="line"/>
      <point x="284" y="195" type="line"/>
      <point x="492" y="980" type="line"/>
      <point x="571" y="980" type="line"/>
      <point x="316" y="0" type="line"/>
    </contour>
  </outline>
</glyph>
<glyph name="w" format="2">
  <advance width="828"/>
  <unicode hex="0077"/>
  <outline>
    <contour>
      <point x="189" y="0" type="line"/>
      <point x="0" y="980" type="line"/>
      <point x="74" y="980" type="line"/>
      <point x="234" y="195" type="line"/>
      <point x="368" y="980" type="line"/>
      <point x="464" y="980" type="line"/>
      <point x="616" y="193" type="line"/>
      <point x="757" y="980" type="line"/>
      <point x="827" y="980" type="line"/>
      <point x="651" y="0" type="line"/>
      <point x="571" y="0" type="line"/>
      <point x="426" y="832" type="line"/>
      <point x="269" y="0" type="line"/>
    </contour>
  </outline>
</glyph>
<glyph name="braceleft" format="2">
  <advance width="324"/>
  <unicode hex="007B"/>
  <outline>
    <contour>
      <point x="-18" y="565" type="line"/>
      <point x="108" y="562"/>
      <point x="183" y="484"/>
      <point x="183.0" y="433" type="qcurve" smooth="yes"/>
      <point x="183" y="395"/>
      <point x="126" y="326"/>
      <point x="93" y="284" type="qcurve" smooth="yes"/>
      <point x="60" y="241"/>
      <point x="6" y="140"/>
      <point x="6.0" y="68" type="qcurve" smooth="yes"/>
      <point x="6" y="-33"/>
      <point x="182" y="-215"/>
      <point x="307" y="-304" type="qcurve"/>
      <point x="346.0" y="-220" type="line"/>
      <point x="238.0" y="-140"/>
      <point x="93.0" y="-6"/>
      <point x="93.0" y="70" type="qcurve" smooth="yes"/>
      <point x="93" y="109"/>
      <point x="123" y="186"/>
      <point x="159" y="235.0" type="qcurve" smooth="yes"/>
      <point x="199" y="289.0"/>
      <point x="267" y="376"/>
      <point x="267.0" y="424" type="qcurve" smooth="yes"/>
      <point x="267" y="498.0"/>
      <point x="131" y="599.0"/>
      <point x="17" y="613.0" type="qcurve"/>
      <point x="145" y="634.0"/>
      <point x="272" y="736.0"/>
      <point x="272.0" y="802" type="qcurve" smooth="yes"/>
      <point x="272" y="846.0"/>
      <point x="205" y="938.0"/>
      <point x="164" y="987.0" type="qcurve" smooth="yes"/>
      <point x="125" y="1033"/>
      <point x="98" y="1113"/>
      <point x="98" y="1153" type="qcurve" smooth="yes"/>
      <point x="98" y="1234"/>
      <point x="243" y="1415"/>
      <point x="354" y="1457" type="qcurve"/>
      <point x="307" y="1526" type="line"/>
      <point x="184" y="1476"/>
      <point x="11" y="1265"/>
      <point x="11.0" y="1158" type="qcurve" smooth="yes"/>
      <point x="11" y="1082"/>
      <point x="64" y="980"/>
      <point x="98" y="938" type="qcurve" smooth="yes"/>
      <point x="132" y="896"/>
      <point x="189" y="827"/>
      <point x="189.0" y="790" type="qcurve" smooth="yes"/>
      <point x="189.0" y="742"/>
      <point x="113" y="670"/>
      <point x="-18" y="655" type="qcurve"/>
    </contour>
  </outline>
</glyph>
<glyph name="asciitilde" format="2">
  <advance width="754"/>
  <unicode hex="007E"/>
  <outline>
    <contour>
      <point x="410" y="807.0" type="qcurve" smooth="yes"/>
      <point x="371" y="852.0"/>
      <point x="295" y="902.0"/>
      <point x="230" y="902.0" type="qcurve" smooth="yes"/>
      <point x="154" y="902"/>
      <point x="48" y="770.0"/>
      <point x="28" y="715.0" type="qcurve"/>
      <point x="68.0" y="669.0" type="line"/>
      <point x="84" y="708.0"/>
      <point x="170" y="805.0"/>
      <point x="224" y="805.0" type="qcurve"/>
      <point x="279.0" y="805.0"/>
      <point x="340" y="765.0"/>
      <point x="376" y="732.0" type="qcurve" smooth="yes"/>
      <point x="428" y="683.0"/>
      <point x="535" y="586.0"/>
      <point x="587" y="586.0" type="qcurve" smooth="yes"/>
      <point x="630" y="586.0"/>
      <point x="725" y="700.0"/>
      <point x="746" y="753.0" type="qcurve"/>
      <point x="713" y="799.0" type="line"/>
      <point x="696" y="765.0"/>
      <point x="613" y="689.0"/>
      <point x="575" y="689.0" type="qcurve" smooth="yes"/>
      <point x="538" y="689"/>
      <point x="441" y="772"/>
    </contour>
  </outline>
</glyph>
